<svg version="1.1" viewBox="0.0 0.0 566.9291338582677 566.9291338582677" fill="none" stroke="none" stroke-linecap="square" stroke-miterlimit="10" xmlns:xlink="http://www.w3.org/1999/xlink" xmlns="http://www.w3.org/2000/svg"><clipPath id="p.0"><path d="m0 0l566.92914 0l0 566.92914l-566.92914 0l0 -566.92914z" clip-rule="nonzero"/></clipPath><g clip-path="url(#p.0)"><path fill="#000000" fill-opacity="0.0" d="m0 0l566.92914 0l0 566.92914l-566.92914 0z" fill-rule="evenodd"/><path fill="#3d8efa" d="m0 283.46457l0 0c0 -156.55316 126.91141 -283.46457 283.46457 -283.46457l0 0c75.179474 0 147.27979 29.864931 200.43973 83.02485c53.159912 53.15992 83.02484 125.26025 83.02484 200.43973l0 0c0 156.55316 -126.91141 283.46457 -283.46457 283.46457l0 0c-156.55316 0 -283.46457 -126.91141 -283.46457 -283.46457z" fill-rule="evenodd"/><path stroke="#3d8efa" stroke-width="1.0" stroke-linejoin="round" stroke-linecap="butt" d="m0 283.46457l0 0c0 -156.55316 126.91141 -283.46457 283.46457 -283.46457l0 0c75.179474 0 147.27979 29.864931 200.43973 83.02485c53.159912 53.15992 83.02484 125.26025 83.02484 200.43973l0 0c0 156.55316 -126.91141 283.46457 -283.46457 283.46457l0 0c-156.55316 0 -283.46457 -126.91141 -283.46457 -283.46457z" fill-rule="evenodd"/><path fill="#000000" fill-opacity="0.0" d="m-13.984252 -57.43307l594.89764 0l0 665.7952l-594.89764 0z" fill-rule="evenodd"/><path fill="#ffffff" d="m139.18918 451.14456l0 -349.32812l46.21875 0l0 349.32812l-46.21875 0zm99.59766 0l0 -34.796875l161.07812 -184.90625q-27.40625 1.4375 -48.375 1.4375l-103.171875 0l0 -34.796875l206.82812 0l0 28.359375l-137.01562 160.60938l-26.4375 29.296875q28.828125 -2.140625 54.078125 -2.140625l117.0 0l0 36.9375l-223.98438 0z" fill-rule="nonzero"/></g></svg>